#!OML:ASF I:\Random Stuff\random\construction\7_22_03\Session 2\subj1.ASF
:FULLY-SPECIFIED
:DEGREES
1941
root 4.72641 17.7345 0.375251 6.59573 108.669 -1.05013
lowerback 0.781538 4.87433 2.61035
upperback -0.426281 6.73567 4.86449
thorax -1.167 3.43545 3.41534
lowerneck -25.2367 -2.63834 3.03692
upperneck 43.734 -6.70065 7.75268
head 23.7842 0.231869 2.4251
rclavicle -7.35503e-015 -2.22639e-014
rhumerus -11.1645 11.8524 -60.3925
rradius 12.9294
rwrist 21.9099
rhand -10.4262 24.7671
rfingers 7.12502
rthumb 15.5732 -4.6259
lclavicle -7.35503e-015 -2.22639e-014
lhumerus 15.3644 11.8582 16.1234
lradius 88.1032
lwrist 57.726
lhand -27.5361 47.8878
lfingers 7.12502
lthumb -0.937832 797.866
rfemur -2.1378 24.2775 22.0917
rtibia 10.7606
rfoot -40.6599 -54.0006
rtoes 37.9618
lfemur -20.3869 -18.8417 -15.3135
ltibia 20.7107
lfoot -8.77738 3.02776
ltoes -32.436
1942
root 4.73802 17.7359 0.383567 6.51398 108.564 -1.11053
lowerback 0.705966 4.68327 2.4257
upperback -0.30631 6.46634 4.90276
thorax -1.01422 3.30209 3.5751
lowerneck -25.2994 -2.4804 2.99393
upperneck 43.7713 -6.44983 7.75818
head 23.8298 0.304898 2.50516
rclavicle -6.06293e-014 -1.59028e-014
rhumerus -12.1918 18.2374 -60.827
rradius 15.8942
rwrist 12.2242
rhand -8.76017 24.0469
rfingers 7.12502
rthumb 17.1773 -5.21387
lclavicle -6.06293e-014 -1.59028e-014
lhumerus 14.4393 12.0687 16.3961
lradius 88.722
lwrist 57.1988
lhand -27.442 47.4787
lfingers 7.12502
lthumb -0.84698 797.457
rfemur -2.09161 24.2536 22.1309
rtibia 10.7608
rfoot -40.3576 -54.0318
rtoes 37.7737
lfemur -20.2713 -18.8728 -15.301
ltibia 20.6593
lfoot -8.85871 3.13033
ltoes -33.2458
1943
root 4.74886 17.7353 0.390823 6.41626 108.376 -1.14474
lowerback 0.77817 4.58628 2.36534
upperback -0.279653 6.33109 4.81641
thorax -1.01719 3.23149 3.51695
lowerneck -25.2471 -2.37128 3.17393
upperneck 43.8441 -6.32619 7.67839
head 23.8478 0.370832 2.46307
rclavicle 1.37161e-014 4.77083e-014
rhumerus -13.5764 22.1051 -61.1627
rradius 19.2374
rwrist 5.37514
rhand -8.34351 23.4113
rfingers 7.12502
rthumb 17.5783 -5.81405
lclavicle 1.37161e-014 4.77083e-014
lhumerus 13.7247 12.129 16.6124
lradius 89.4556
lwrist 56.6144
lhand -27.327 46.9781
lfingers 7.12502
lthumb -0.735962 796.957
rfemur -2.0004 24.0286 22.1712
rtibia 10.729
rfoot -39.7124 -53.8835
rtoes 37.5279
lfemur -20.0989 -18.948 -15.2838
ltibia 20.6249
lfoot -8.96787 3.3498
ltoes -33.8323
1944
root 4.75935 17.735 0.396722 6.38711 108.101 -1.11577
lowerback 0.880372 4.5768 2.35342
upperback -0.293967 6.3137 4.66232
thorax -1.07164 3.218 3.35545
lowerneck -25.1627 -2.27347 3.52723
upperneck 43.9021 -6.29027 7.5767
head 23.8337 0.437758 2.35005
rclavicle -2.127e-014 4.13472e-014
rhumerus -15.1576 24.6067 -61.4887
rradius 22.9507
rwrist -0.483694
rhand -9.01471 22.6278
rfingers 7.12502
rthumb 16.9323 -6.65415
lclavicle -2.127e-014 4.13472e-014
lhumerus 13.168 12.0826 16.8107
lradius 90.2974
lwrist 55.9989
lhand -27.0037 46.4292
lfingers 7.12502
lthumb -0.423647 796.408
rfemur -1.93443 23.446 22.1723
rtibia 10.6258
rfoot -38.1584 -53.6389
rtoes 36.5761
lfemur -19.9402 -19.2435 -15.1978
ltibia 20.6157
lfoot -9.02948 3.86577
ltoes -33.5187
1945
root 4.77321 17.738 0.40553 6.6205 107.784 -0.911722
lowerback 0.803133 4.58376 2.24236
upperback -0.296086 6.31142 4.57879
thorax -1.03265 3.21512 3.3375
lowerneck -25.1659 -2.25326 3.41959
upperneck 44.0273 -6.33702 7.92445
head 24.0183 0.461874 2.58233
rclavicle 1.11916e-013 2.8625e-014
rhumerus -16.6338 26.3512 -61.6783
rradius 26.8544
rwrist -5.99257
rhand -10.5731 21.9544
rfingers 7.12502
rthumb 15.4317 -7.44959
lclavicle 1.11916e-013 2.8625e-014
lhumerus 12.5038 12.0654 17.0559
lradius 91.2617
lwrist 55.5269
lhand -26.6498 45.7995
lfingers 7.12502
lthumb -0.0818524 795.779
rfemur -1.9876 22.8962 22.1911
rtibia 10.5149
rfoot -36.427 -53.432
rtoes 35.3821
lfemur -19.8739 -19.5069 -15.0075
ltibia 20.6041
lfoot -9.11655 4.3838
ltoes -33.2918
